<mxfile host="app.diagrams.net" agent="Mozilla/5.0 (Windows NT 10.0; Win64; x64) AppleWebKit/537.36 (KHTML, like Gecko) Chrome/130.0.0.0 Safari/537.36" version="24.8.3">
  <diagram name="Страница — 1" id="sxpXtHid8_-9pCo3sxR_">
    <mxGraphModel dx="1405" dy="932" grid="1" gridSize="10" guides="1" tooltips="1" connect="1" arrows="1" fold="1" page="1" pageScale="1" pageWidth="827" pageHeight="1169" math="0" shadow="0">
      <root>
        <mxCell id="0" />
        <mxCell id="1" parent="0" />
        <mxCell id="boerI9CcpUqn10ddIS3G-4" style="edgeStyle=orthogonalEdgeStyle;rounded=0;orthogonalLoop=1;jettySize=auto;html=1;exitX=0.5;exitY=1;exitDx=0;exitDy=0;entryX=0.5;entryY=0;entryDx=0;entryDy=0;" edge="1" parent="1" source="boerI9CcpUqn10ddIS3G-1" target="boerI9CcpUqn10ddIS3G-3">
          <mxGeometry relative="1" as="geometry" />
        </mxCell>
        <mxCell id="boerI9CcpUqn10ddIS3G-1" value="&lt;font style=&quot;font-size: 8px;&quot;&gt;Исток (начало рассмотрения процесса)&lt;/font&gt;" style="ellipse;whiteSpace=wrap;html=1;aspect=fixed;" vertex="1" parent="1">
          <mxGeometry x="320" y="80" width="80" height="80" as="geometry" />
        </mxCell>
        <mxCell id="boerI9CcpUqn10ddIS3G-2" value="" style="triangle;whiteSpace=wrap;html=1;direction=south;fillColor=#000000;" vertex="1" parent="1">
          <mxGeometry x="355" y="90" width="10" height="10" as="geometry" />
        </mxCell>
        <mxCell id="boerI9CcpUqn10ddIS3G-28" style="edgeStyle=orthogonalEdgeStyle;rounded=0;orthogonalLoop=1;jettySize=auto;html=1;exitX=0.5;exitY=1;exitDx=0;exitDy=0;" edge="1" parent="1" source="boerI9CcpUqn10ddIS3G-3">
          <mxGeometry relative="1" as="geometry">
            <mxPoint x="360" y="320" as="targetPoint" />
          </mxGeometry>
        </mxCell>
        <mxCell id="boerI9CcpUqn10ddIS3G-3" value="&lt;font style=&quot;font-size: 10px;&quot;&gt;Исходная страница (Author-1)&lt;/font&gt;" style="ellipse;whiteSpace=wrap;html=1;aspect=fixed;" vertex="1" parent="1">
          <mxGeometry x="320" y="210" width="80" height="80" as="geometry" />
        </mxCell>
        <mxCell id="boerI9CcpUqn10ddIS3G-5" value="" style="ellipse;whiteSpace=wrap;html=1;aspect=fixed;fillColor=#000000;" vertex="1" parent="1">
          <mxGeometry x="355" y="220" width="10" height="10" as="geometry" />
        </mxCell>
        <mxCell id="boerI9CcpUqn10ddIS3G-32" style="edgeStyle=orthogonalEdgeStyle;rounded=0;orthogonalLoop=1;jettySize=auto;html=1;exitX=0.5;exitY=1;exitDx=0;exitDy=0;" edge="1" parent="1" source="boerI9CcpUqn10ddIS3G-11">
          <mxGeometry relative="1" as="geometry">
            <mxPoint x="360" y="460" as="targetPoint" />
          </mxGeometry>
        </mxCell>
        <mxCell id="boerI9CcpUqn10ddIS3G-11" value="&lt;div style=&quot;&quot;&gt;&lt;span style=&quot;background-color: initial; font-size: 10px;&quot;&gt;Страница&amp;nbsp;&lt;/span&gt;&lt;/div&gt;&lt;div style=&quot;&quot;&gt;&lt;span style=&quot;background-color: initial; font-size: 10px;&quot;&gt;(Title-1)&lt;/span&gt;&lt;/div&gt;" style="ellipse;whiteSpace=wrap;html=1;aspect=fixed;align=center;" vertex="1" parent="1">
          <mxGeometry x="320" y="350" width="80" height="80" as="geometry" />
        </mxCell>
        <mxCell id="boerI9CcpUqn10ddIS3G-13" value="" style="endArrow=none;html=1;rounded=0;strokeWidth=2;" edge="1" parent="1">
          <mxGeometry width="50" height="50" relative="1" as="geometry">
            <mxPoint x="340" y="320" as="sourcePoint" />
            <mxPoint x="380" y="320" as="targetPoint" />
          </mxGeometry>
        </mxCell>
        <mxCell id="boerI9CcpUqn10ddIS3G-17" value="" style="ellipse;whiteSpace=wrap;html=1;aspect=fixed;fillColor=#000000;" vertex="1" parent="1">
          <mxGeometry x="355" y="360" width="10" height="10" as="geometry" />
        </mxCell>
        <mxCell id="boerI9CcpUqn10ddIS3G-50" style="edgeStyle=orthogonalEdgeStyle;rounded=0;orthogonalLoop=1;jettySize=auto;html=1;exitX=0.5;exitY=1;exitDx=0;exitDy=0;" edge="1" parent="1" source="boerI9CcpUqn10ddIS3G-18">
          <mxGeometry relative="1" as="geometry">
            <mxPoint x="349.9999999999999" y="320" as="targetPoint" />
            <Array as="points">
              <mxPoint x="195" y="300" />
              <mxPoint x="350" y="300" />
            </Array>
          </mxGeometry>
        </mxCell>
        <mxCell id="boerI9CcpUqn10ddIS3G-81" style="edgeStyle=orthogonalEdgeStyle;rounded=0;orthogonalLoop=1;jettySize=auto;html=1;exitX=0.5;exitY=1;exitDx=0;exitDy=0;" edge="1" parent="1" source="boerI9CcpUqn10ddIS3G-18">
          <mxGeometry relative="1" as="geometry">
            <mxPoint x="350" y="740" as="targetPoint" />
            <Array as="points">
              <mxPoint x="195" y="730" />
              <mxPoint x="351" y="730" />
            </Array>
          </mxGeometry>
        </mxCell>
        <mxCell id="boerI9CcpUqn10ddIS3G-87" style="rounded=0;orthogonalLoop=1;jettySize=auto;html=1;exitX=0.5;exitY=1;exitDx=0;exitDy=0;" edge="1" parent="1" source="boerI9CcpUqn10ddIS3G-18">
          <mxGeometry relative="1" as="geometry">
            <mxPoint x="350" y="600" as="targetPoint" />
          </mxGeometry>
        </mxCell>
        <mxCell id="boerI9CcpUqn10ddIS3G-88" style="rounded=0;orthogonalLoop=1;jettySize=auto;html=1;exitX=0.5;exitY=0;exitDx=0;exitDy=0;" edge="1" parent="1" source="boerI9CcpUqn10ddIS3G-18">
          <mxGeometry relative="1" as="geometry">
            <mxPoint x="350" y="460" as="targetPoint" />
          </mxGeometry>
        </mxCell>
        <mxCell id="boerI9CcpUqn10ddIS3G-18" value="Нажать кнопку 1" style="ellipse;whiteSpace=wrap;html=1;aspect=fixed;" vertex="1" parent="1">
          <mxGeometry x="155" y="480" width="80" height="80" as="geometry" />
        </mxCell>
        <mxCell id="boerI9CcpUqn10ddIS3G-19" value="" style="whiteSpace=wrap;html=1;aspect=fixed;fillColor=#000000;" vertex="1" parent="1">
          <mxGeometry x="190" y="490" width="10" height="10" as="geometry" />
        </mxCell>
        <mxCell id="boerI9CcpUqn10ddIS3G-20" value="" style="endArrow=none;html=1;rounded=0;strokeWidth=2;" edge="1" parent="1">
          <mxGeometry width="50" height="50" relative="1" as="geometry">
            <mxPoint x="340" y="460" as="sourcePoint" />
            <mxPoint x="340" y="460" as="targetPoint" />
            <Array as="points">
              <mxPoint x="380" y="460" />
            </Array>
          </mxGeometry>
        </mxCell>
        <mxCell id="boerI9CcpUqn10ddIS3G-37" style="edgeStyle=orthogonalEdgeStyle;rounded=0;orthogonalLoop=1;jettySize=auto;html=1;exitX=0.5;exitY=1;exitDx=0;exitDy=0;" edge="1" parent="1" source="boerI9CcpUqn10ddIS3G-23">
          <mxGeometry relative="1" as="geometry">
            <mxPoint x="360.1538461538461" y="600" as="targetPoint" />
          </mxGeometry>
        </mxCell>
        <mxCell id="boerI9CcpUqn10ddIS3G-23" value="&lt;div style=&quot;&quot;&gt;&lt;span style=&quot;background-color: initial; font-size: 10px;&quot;&gt;Страница&amp;nbsp;&lt;/span&gt;&lt;/div&gt;&lt;div style=&quot;&quot;&gt;&lt;span style=&quot;background-color: initial; font-size: 10px;&quot;&gt;(Editor-1)&lt;/span&gt;&lt;/div&gt;" style="ellipse;whiteSpace=wrap;html=1;aspect=fixed;align=center;" vertex="1" parent="1">
          <mxGeometry x="320" y="490" width="80" height="80" as="geometry" />
        </mxCell>
        <mxCell id="boerI9CcpUqn10ddIS3G-27" value="" style="ellipse;whiteSpace=wrap;html=1;aspect=fixed;fillColor=#000000;" vertex="1" parent="1">
          <mxGeometry x="355" y="500" width="10" height="10" as="geometry" />
        </mxCell>
        <mxCell id="boerI9CcpUqn10ddIS3G-82" style="edgeStyle=orthogonalEdgeStyle;rounded=0;orthogonalLoop=1;jettySize=auto;html=1;exitX=0.5;exitY=1;exitDx=0;exitDy=0;" edge="1" parent="1" source="boerI9CcpUqn10ddIS3G-29">
          <mxGeometry relative="1" as="geometry">
            <mxPoint x="360" y="740" as="targetPoint" />
          </mxGeometry>
        </mxCell>
        <mxCell id="boerI9CcpUqn10ddIS3G-29" value="&lt;div style=&quot;&quot;&gt;&lt;span style=&quot;background-color: initial; font-size: 10px;&quot;&gt;Страница&amp;nbsp;&lt;/span&gt;&lt;/div&gt;&lt;div style=&quot;&quot;&gt;&lt;span style=&quot;background-color: initial; font-size: 10px;&quot;&gt;(Publisher-1)&lt;/span&gt;&lt;/div&gt;" style="ellipse;whiteSpace=wrap;html=1;aspect=fixed;align=center;" vertex="1" parent="1">
          <mxGeometry x="320" y="630" width="80" height="80" as="geometry" />
        </mxCell>
        <mxCell id="boerI9CcpUqn10ddIS3G-33" value="" style="ellipse;whiteSpace=wrap;html=1;aspect=fixed;fillColor=#000000;" vertex="1" parent="1">
          <mxGeometry x="355" y="640" width="10" height="10" as="geometry" />
        </mxCell>
        <mxCell id="boerI9CcpUqn10ddIS3G-36" value="" style="endArrow=none;html=1;rounded=0;strokeWidth=2;" edge="1" parent="1">
          <mxGeometry width="50" height="50" relative="1" as="geometry">
            <mxPoint x="340" y="600" as="sourcePoint" />
            <mxPoint x="340" y="600" as="targetPoint" />
            <Array as="points">
              <mxPoint x="380" y="600" />
            </Array>
          </mxGeometry>
        </mxCell>
        <mxCell id="boerI9CcpUqn10ddIS3G-38" value="" style="endArrow=classic;html=1;rounded=0;entryX=0.5;entryY=0;entryDx=0;entryDy=0;" edge="1" parent="1" target="boerI9CcpUqn10ddIS3G-29">
          <mxGeometry width="50" height="50" relative="1" as="geometry">
            <mxPoint x="360" y="600" as="sourcePoint" />
            <mxPoint x="350" y="540" as="targetPoint" />
          </mxGeometry>
        </mxCell>
        <mxCell id="boerI9CcpUqn10ddIS3G-41" value="" style="endArrow=classic;html=1;rounded=0;entryX=0.5;entryY=0;entryDx=0;entryDy=0;" edge="1" parent="1" target="boerI9CcpUqn10ddIS3G-23">
          <mxGeometry width="50" height="50" relative="1" as="geometry">
            <mxPoint x="360" y="460" as="sourcePoint" />
            <mxPoint x="350" y="450" as="targetPoint" />
          </mxGeometry>
        </mxCell>
        <mxCell id="boerI9CcpUqn10ddIS3G-42" value="" style="endArrow=classic;html=1;rounded=0;entryX=0.5;entryY=0;entryDx=0;entryDy=0;" edge="1" parent="1" target="boerI9CcpUqn10ddIS3G-11">
          <mxGeometry width="50" height="50" relative="1" as="geometry">
            <mxPoint x="360" y="320" as="sourcePoint" />
            <mxPoint x="350" y="300" as="targetPoint" />
          </mxGeometry>
        </mxCell>
        <mxCell id="boerI9CcpUqn10ddIS3G-77" style="edgeStyle=orthogonalEdgeStyle;rounded=0;orthogonalLoop=1;jettySize=auto;html=1;exitX=0.5;exitY=0;exitDx=0;exitDy=0;" edge="1" parent="1" source="boerI9CcpUqn10ddIS3G-54">
          <mxGeometry relative="1" as="geometry">
            <mxPoint x="490" y="320" as="targetPoint" />
            <Array as="points">
              <mxPoint x="680" y="300" />
              <mxPoint x="491" y="300" />
              <mxPoint x="491" y="320" />
            </Array>
          </mxGeometry>
        </mxCell>
        <mxCell id="boerI9CcpUqn10ddIS3G-78" style="edgeStyle=orthogonalEdgeStyle;rounded=0;orthogonalLoop=1;jettySize=auto;html=1;exitX=0.5;exitY=1;exitDx=0;exitDy=0;" edge="1" parent="1" source="boerI9CcpUqn10ddIS3G-54">
          <mxGeometry relative="1" as="geometry">
            <mxPoint x="490" y="600" as="targetPoint" />
            <Array as="points">
              <mxPoint x="680" y="580" />
              <mxPoint x="490" y="580" />
            </Array>
          </mxGeometry>
        </mxCell>
        <mxCell id="boerI9CcpUqn10ddIS3G-79" style="edgeStyle=orthogonalEdgeStyle;rounded=0;orthogonalLoop=1;jettySize=auto;html=1;exitX=0;exitY=0.5;exitDx=0;exitDy=0;" edge="1" parent="1" source="boerI9CcpUqn10ddIS3G-54">
          <mxGeometry relative="1" as="geometry">
            <mxPoint x="500" y="460.1538461538461" as="targetPoint" />
          </mxGeometry>
        </mxCell>
        <mxCell id="boerI9CcpUqn10ddIS3G-54" value="Нажать кнопку 2" style="ellipse;whiteSpace=wrap;html=1;aspect=fixed;" vertex="1" parent="1">
          <mxGeometry x="640" y="420" width="80" height="80" as="geometry" />
        </mxCell>
        <mxCell id="boerI9CcpUqn10ddIS3G-55" value="" style="whiteSpace=wrap;html=1;aspect=fixed;fillColor=#000000;" vertex="1" parent="1">
          <mxGeometry x="675" y="430" width="10" height="10" as="geometry" />
        </mxCell>
        <mxCell id="boerI9CcpUqn10ddIS3G-69" style="edgeStyle=orthogonalEdgeStyle;rounded=0;orthogonalLoop=1;jettySize=auto;html=1;exitX=0.5;exitY=1;exitDx=0;exitDy=0;" edge="1" parent="1" source="boerI9CcpUqn10ddIS3G-56">
          <mxGeometry relative="1" as="geometry">
            <mxPoint x="480.3076923076924" y="320" as="targetPoint" />
          </mxGeometry>
        </mxCell>
        <mxCell id="boerI9CcpUqn10ddIS3G-56" value="&lt;div style=&quot;&quot;&gt;&lt;span style=&quot;background-color: initial; font-size: 10px;&quot;&gt;Страница&amp;nbsp;&lt;/span&gt;&lt;/div&gt;&lt;div style=&quot;&quot;&gt;&lt;span style=&quot;background-color: initial; font-size: 10px;&quot;&gt;(Author-2)&lt;/span&gt;&lt;/div&gt;" style="ellipse;whiteSpace=wrap;html=1;aspect=fixed;align=center;" vertex="1" parent="1">
          <mxGeometry x="440" y="210" width="80" height="80" as="geometry" />
        </mxCell>
        <mxCell id="boerI9CcpUqn10ddIS3G-68" style="edgeStyle=orthogonalEdgeStyle;rounded=0;orthogonalLoop=1;jettySize=auto;html=1;exitX=0.5;exitY=1;exitDx=0;exitDy=0;" edge="1" parent="1" source="boerI9CcpUqn10ddIS3G-61">
          <mxGeometry relative="1" as="geometry">
            <mxPoint x="480.3076923076924" y="459.9999999999999" as="targetPoint" />
          </mxGeometry>
        </mxCell>
        <mxCell id="boerI9CcpUqn10ddIS3G-61" value="&lt;div style=&quot;&quot;&gt;&lt;span style=&quot;background-color: initial; font-size: 10px;&quot;&gt;Страница&amp;nbsp;&lt;/span&gt;&lt;/div&gt;&lt;div style=&quot;&quot;&gt;&lt;span style=&quot;background-color: initial; font-size: 10px;&quot;&gt;(Title-2)&lt;/span&gt;&lt;/div&gt;" style="ellipse;whiteSpace=wrap;html=1;aspect=fixed;align=center;" vertex="1" parent="1">
          <mxGeometry x="440" y="350" width="80" height="80" as="geometry" />
        </mxCell>
        <mxCell id="boerI9CcpUqn10ddIS3G-67" style="edgeStyle=orthogonalEdgeStyle;rounded=0;orthogonalLoop=1;jettySize=auto;html=1;exitX=0.5;exitY=1;exitDx=0;exitDy=0;" edge="1" parent="1" source="boerI9CcpUqn10ddIS3G-62">
          <mxGeometry relative="1" as="geometry">
            <mxPoint x="480.3076923076924" y="600" as="targetPoint" />
          </mxGeometry>
        </mxCell>
        <mxCell id="boerI9CcpUqn10ddIS3G-62" value="&lt;div style=&quot;&quot;&gt;&lt;span style=&quot;background-color: initial; font-size: 10px;&quot;&gt;Страница&amp;nbsp;&lt;/span&gt;&lt;/div&gt;&lt;div style=&quot;&quot;&gt;&lt;span style=&quot;background-color: initial; font-size: 10px;&quot;&gt;(Editor-2)&lt;/span&gt;&lt;/div&gt;" style="ellipse;whiteSpace=wrap;html=1;aspect=fixed;align=center;" vertex="1" parent="1">
          <mxGeometry x="440" y="490" width="80" height="80" as="geometry" />
        </mxCell>
        <mxCell id="boerI9CcpUqn10ddIS3G-86" style="edgeStyle=orthogonalEdgeStyle;rounded=0;orthogonalLoop=1;jettySize=auto;html=1;exitX=0.5;exitY=1;exitDx=0;exitDy=0;" edge="1" parent="1" source="boerI9CcpUqn10ddIS3G-63">
          <mxGeometry relative="1" as="geometry">
            <mxPoint x="360" y="200" as="targetPoint" />
            <Array as="points">
              <mxPoint x="480" y="780" />
              <mxPoint x="140" y="780" />
              <mxPoint x="140" y="200" />
            </Array>
          </mxGeometry>
        </mxCell>
        <mxCell id="boerI9CcpUqn10ddIS3G-63" value="&lt;div style=&quot;&quot;&gt;&lt;span style=&quot;background-color: initial; font-size: 10px;&quot;&gt;Страница&amp;nbsp;&lt;/span&gt;&lt;/div&gt;&lt;div style=&quot;&quot;&gt;&lt;span style=&quot;background-color: initial; font-size: 10px;&quot;&gt;(Publisher-2)&lt;/span&gt;&lt;/div&gt;" style="ellipse;whiteSpace=wrap;html=1;aspect=fixed;align=center;" vertex="1" parent="1">
          <mxGeometry x="440" y="630" width="80" height="80" as="geometry" />
        </mxCell>
        <mxCell id="boerI9CcpUqn10ddIS3G-64" value="" style="endArrow=none;html=1;rounded=0;strokeWidth=2;" edge="1" parent="1">
          <mxGeometry width="50" height="50" relative="1" as="geometry">
            <mxPoint x="460" y="320" as="sourcePoint" />
            <mxPoint x="500" y="320" as="targetPoint" />
          </mxGeometry>
        </mxCell>
        <mxCell id="boerI9CcpUqn10ddIS3G-65" value="" style="endArrow=none;html=1;rounded=0;strokeWidth=2;" edge="1" parent="1">
          <mxGeometry width="50" height="50" relative="1" as="geometry">
            <mxPoint x="460" y="459.62" as="sourcePoint" />
            <mxPoint x="500" y="459.62" as="targetPoint" />
          </mxGeometry>
        </mxCell>
        <mxCell id="boerI9CcpUqn10ddIS3G-66" value="" style="endArrow=none;html=1;rounded=0;strokeWidth=2;" edge="1" parent="1">
          <mxGeometry width="50" height="50" relative="1" as="geometry">
            <mxPoint x="460" y="604" as="sourcePoint" />
            <mxPoint x="500" y="604" as="targetPoint" />
          </mxGeometry>
        </mxCell>
        <mxCell id="boerI9CcpUqn10ddIS3G-70" value="" style="endArrow=classic;html=1;rounded=0;" edge="1" parent="1">
          <mxGeometry width="50" height="50" relative="1" as="geometry">
            <mxPoint x="480" y="320" as="sourcePoint" />
            <mxPoint x="480" y="350" as="targetPoint" />
          </mxGeometry>
        </mxCell>
        <mxCell id="boerI9CcpUqn10ddIS3G-71" value="" style="endArrow=classic;html=1;rounded=0;entryX=0.5;entryY=0;entryDx=0;entryDy=0;" edge="1" parent="1" target="boerI9CcpUqn10ddIS3G-62">
          <mxGeometry width="50" height="50" relative="1" as="geometry">
            <mxPoint x="480" y="460" as="sourcePoint" />
            <mxPoint x="460" y="460" as="targetPoint" />
          </mxGeometry>
        </mxCell>
        <mxCell id="boerI9CcpUqn10ddIS3G-72" value="" style="endArrow=classic;html=1;rounded=0;entryX=0.5;entryY=0;entryDx=0;entryDy=0;" edge="1" parent="1" target="boerI9CcpUqn10ddIS3G-63">
          <mxGeometry width="50" height="50" relative="1" as="geometry">
            <mxPoint x="480" y="600" as="sourcePoint" />
            <mxPoint x="460" y="520" as="targetPoint" />
          </mxGeometry>
        </mxCell>
        <mxCell id="boerI9CcpUqn10ddIS3G-73" value="" style="ellipse;whiteSpace=wrap;html=1;aspect=fixed;fillColor=#000000;" vertex="1" parent="1">
          <mxGeometry x="475" y="640" width="10" height="10" as="geometry" />
        </mxCell>
        <mxCell id="boerI9CcpUqn10ddIS3G-74" value="" style="ellipse;whiteSpace=wrap;html=1;aspect=fixed;fillColor=#000000;" vertex="1" parent="1">
          <mxGeometry x="475" y="500" width="10" height="10" as="geometry" />
        </mxCell>
        <mxCell id="boerI9CcpUqn10ddIS3G-75" value="" style="ellipse;whiteSpace=wrap;html=1;aspect=fixed;fillColor=#000000;" vertex="1" parent="1">
          <mxGeometry x="475" y="360" width="10" height="10" as="geometry" />
        </mxCell>
        <mxCell id="boerI9CcpUqn10ddIS3G-76" value="" style="ellipse;whiteSpace=wrap;html=1;aspect=fixed;fillColor=#000000;" vertex="1" parent="1">
          <mxGeometry x="475" y="220" width="10" height="10" as="geometry" />
        </mxCell>
        <mxCell id="boerI9CcpUqn10ddIS3G-80" value="" style="endArrow=none;html=1;rounded=0;strokeWidth=2;" edge="1" parent="1">
          <mxGeometry width="50" height="50" relative="1" as="geometry">
            <mxPoint x="340" y="740" as="sourcePoint" />
            <mxPoint x="340" y="740" as="targetPoint" />
            <Array as="points">
              <mxPoint x="380" y="740" />
            </Array>
          </mxGeometry>
        </mxCell>
        <mxCell id="boerI9CcpUqn10ddIS3G-83" value="" style="endArrow=classic;html=1;rounded=0;entryX=0.5;entryY=0;entryDx=0;entryDy=0;" edge="1" parent="1" target="boerI9CcpUqn10ddIS3G-56">
          <mxGeometry width="50" height="50" relative="1" as="geometry">
            <mxPoint x="360" y="740" as="sourcePoint" />
            <mxPoint x="380" y="490" as="targetPoint" />
            <Array as="points">
              <mxPoint x="360" y="760" />
              <mxPoint x="420" y="760" />
              <mxPoint x="420" y="200" />
              <mxPoint x="460" y="200" />
              <mxPoint x="480" y="200" />
            </Array>
          </mxGeometry>
        </mxCell>
        <mxCell id="boerI9CcpUqn10ddIS3G-90" value="&lt;font style=&quot;font-size: 8px;&quot;&gt;Cток (завершение рассмотрения процесса)&lt;/font&gt;" style="ellipse;whiteSpace=wrap;html=1;aspect=fixed;" vertex="1" parent="1">
          <mxGeometry x="260" y="1230" width="80" height="80" as="geometry" />
        </mxCell>
        <mxCell id="boerI9CcpUqn10ddIS3G-91" value="" style="triangle;whiteSpace=wrap;html=1;direction=north;fillColor=#000000;" vertex="1" parent="1">
          <mxGeometry x="295" y="1230" width="10" height="10" as="geometry" />
        </mxCell>
        <mxCell id="boerI9CcpUqn10ddIS3G-115" style="rounded=0;orthogonalLoop=1;jettySize=auto;html=1;exitX=0.5;exitY=1;exitDx=0;exitDy=0;" edge="1" parent="1" source="boerI9CcpUqn10ddIS3G-96">
          <mxGeometry relative="1" as="geometry">
            <mxPoint x="290.0000000000002" y="960" as="targetPoint" />
          </mxGeometry>
        </mxCell>
        <mxCell id="boerI9CcpUqn10ddIS3G-96" value="&lt;font style=&quot;font-size: 10px;&quot;&gt;Выбор опции &quot;Скрыть&quot;&lt;/font&gt;" style="ellipse;whiteSpace=wrap;html=1;aspect=fixed;" vertex="1" parent="1">
          <mxGeometry x="210" y="840" width="80" height="80" as="geometry" />
        </mxCell>
        <mxCell id="boerI9CcpUqn10ddIS3G-97" value="" style="whiteSpace=wrap;html=1;aspect=fixed;fillColor=#000000;" vertex="1" parent="1">
          <mxGeometry x="245" y="850" width="10" height="10" as="geometry" />
        </mxCell>
        <mxCell id="boerI9CcpUqn10ddIS3G-116" style="rounded=0;orthogonalLoop=1;jettySize=auto;html=1;exitX=0.5;exitY=1;exitDx=0;exitDy=0;" edge="1" parent="1" source="boerI9CcpUqn10ddIS3G-106">
          <mxGeometry relative="1" as="geometry">
            <mxPoint x="310.0000000000002" y="960" as="targetPoint" />
          </mxGeometry>
        </mxCell>
        <mxCell id="boerI9CcpUqn10ddIS3G-106" value="&lt;font style=&quot;font-size: 10px;&quot;&gt;Любое из состояний&amp;nbsp;&lt;/font&gt;&lt;div&gt;&lt;font style=&quot;font-size: 10px;&quot;&gt;выше&lt;/font&gt;&lt;/div&gt;" style="ellipse;whiteSpace=wrap;html=1;aspect=fixed;" vertex="1" parent="1">
          <mxGeometry x="320" y="840" width="80" height="80" as="geometry" />
        </mxCell>
        <mxCell id="boerI9CcpUqn10ddIS3G-107" value="" style="whiteSpace=wrap;html=1;aspect=fixed;fillColor=#000000;" vertex="1" parent="1">
          <mxGeometry x="355" y="850" width="10" height="10" as="geometry" />
        </mxCell>
        <mxCell id="boerI9CcpUqn10ddIS3G-108" value="" style="endArrow=none;html=1;rounded=0;strokeWidth=2;" edge="1" parent="1">
          <mxGeometry width="50" height="50" relative="1" as="geometry">
            <mxPoint x="280" y="960" as="sourcePoint" />
            <mxPoint x="280" y="960" as="targetPoint" />
            <Array as="points">
              <mxPoint x="320" y="960" />
            </Array>
          </mxGeometry>
        </mxCell>
        <mxCell id="boerI9CcpUqn10ddIS3G-119" style="rounded=0;orthogonalLoop=1;jettySize=auto;html=1;exitX=0.5;exitY=1;exitDx=0;exitDy=0;" edge="1" parent="1" source="boerI9CcpUqn10ddIS3G-111">
          <mxGeometry relative="1" as="geometry">
            <mxPoint x="350.0000000000002" y="1100" as="targetPoint" />
          </mxGeometry>
        </mxCell>
        <mxCell id="boerI9CcpUqn10ddIS3G-123" style="edgeStyle=orthogonalEdgeStyle;rounded=0;orthogonalLoop=1;jettySize=auto;html=1;exitX=0.5;exitY=1;exitDx=0;exitDy=0;entryX=1;entryY=0.5;entryDx=0;entryDy=0;" edge="1" parent="1" source="boerI9CcpUqn10ddIS3G-111" target="boerI9CcpUqn10ddIS3G-91">
          <mxGeometry relative="1" as="geometry">
            <mxPoint x="300.44444444444434" y="1130" as="targetPoint" />
          </mxGeometry>
        </mxCell>
        <mxCell id="boerI9CcpUqn10ddIS3G-111" value="&lt;span style=&quot;font-size: 10px;&quot;&gt;Скрытое состояние&lt;/span&gt;" style="ellipse;whiteSpace=wrap;html=1;aspect=fixed;" vertex="1" parent="1">
          <mxGeometry x="260" y="980" width="80" height="80" as="geometry" />
        </mxCell>
        <mxCell id="boerI9CcpUqn10ddIS3G-112" value="" style="whiteSpace=wrap;html=1;aspect=fixed;fillColor=#000000;" vertex="1" parent="1">
          <mxGeometry x="295" y="990" width="10" height="10" as="geometry" />
        </mxCell>
        <mxCell id="boerI9CcpUqn10ddIS3G-120" style="rounded=0;orthogonalLoop=1;jettySize=auto;html=1;exitX=0.5;exitY=1;exitDx=0;exitDy=0;" edge="1" parent="1" source="boerI9CcpUqn10ddIS3G-113">
          <mxGeometry relative="1" as="geometry">
            <mxPoint x="370.0000000000002" y="1100" as="targetPoint" />
          </mxGeometry>
        </mxCell>
        <mxCell id="boerI9CcpUqn10ddIS3G-113" value="&lt;font style=&quot;font-size: 10px;&quot;&gt;Выбор опции &quot;Показать&quot;&lt;/font&gt;" style="ellipse;whiteSpace=wrap;html=1;aspect=fixed;" vertex="1" parent="1">
          <mxGeometry x="380" y="980" width="80" height="80" as="geometry" />
        </mxCell>
        <mxCell id="boerI9CcpUqn10ddIS3G-114" value="" style="whiteSpace=wrap;html=1;aspect=fixed;fillColor=#000000;" vertex="1" parent="1">
          <mxGeometry x="415" y="990" width="10" height="10" as="geometry" />
        </mxCell>
        <mxCell id="boerI9CcpUqn10ddIS3G-117" value="" style="endArrow=classic;html=1;rounded=0;entryX=0.5;entryY=0;entryDx=0;entryDy=0;" edge="1" parent="1" target="boerI9CcpUqn10ddIS3G-111">
          <mxGeometry width="50" height="50" relative="1" as="geometry">
            <mxPoint x="300" y="960" as="sourcePoint" />
            <mxPoint x="420" y="920" as="targetPoint" />
          </mxGeometry>
        </mxCell>
        <mxCell id="boerI9CcpUqn10ddIS3G-118" value="" style="endArrow=none;html=1;rounded=0;strokeWidth=2;" edge="1" parent="1">
          <mxGeometry width="50" height="50" relative="1" as="geometry">
            <mxPoint x="340" y="1100" as="sourcePoint" />
            <mxPoint x="340" y="1100" as="targetPoint" />
            <Array as="points">
              <mxPoint x="380" y="1100" />
            </Array>
          </mxGeometry>
        </mxCell>
        <mxCell id="boerI9CcpUqn10ddIS3G-126" value="" style="endArrow=classic;html=1;rounded=0;entryX=0.5;entryY=0;entryDx=0;entryDy=0;" edge="1" parent="1" target="boerI9CcpUqn10ddIS3G-106">
          <mxGeometry width="50" height="50" relative="1" as="geometry">
            <mxPoint x="360" y="820" as="sourcePoint" />
            <mxPoint x="370" y="740" as="targetPoint" />
          </mxGeometry>
        </mxCell>
        <mxCell id="boerI9CcpUqn10ddIS3G-127" value="&lt;font style=&quot;font-size: 23px;&quot;&gt;...&lt;/font&gt;" style="text;html=1;align=center;verticalAlign=middle;whiteSpace=wrap;rounded=0;" vertex="1" parent="1">
          <mxGeometry x="330" y="790" width="60" height="30" as="geometry" />
        </mxCell>
        <mxCell id="boerI9CcpUqn10ddIS3G-128" value="Нормальное состояние" style="ellipse;whiteSpace=wrap;html=1;aspect=fixed;" vertex="1" parent="1">
          <mxGeometry x="354" y="1130" width="80" height="80" as="geometry" />
        </mxCell>
        <mxCell id="boerI9CcpUqn10ddIS3G-129" value="" style="whiteSpace=wrap;html=1;aspect=fixed;fillColor=#000000;" vertex="1" parent="1">
          <mxGeometry x="389" y="1140" width="10" height="10" as="geometry" />
        </mxCell>
        <mxCell id="boerI9CcpUqn10ddIS3G-130" value="" style="endArrow=classic;html=1;rounded=0;entryX=0.5;entryY=0;entryDx=0;entryDy=0;" edge="1" parent="1" target="boerI9CcpUqn10ddIS3G-128">
          <mxGeometry width="50" height="50" relative="1" as="geometry">
            <mxPoint x="360" y="1100" as="sourcePoint" />
            <mxPoint x="280" y="1210" as="targetPoint" />
          </mxGeometry>
        </mxCell>
        <mxCell id="boerI9CcpUqn10ddIS3G-131" value="" style="endArrow=classic;html=1;rounded=0;exitX=0.5;exitY=1;exitDx=0;exitDy=0;" edge="1" parent="1" source="boerI9CcpUqn10ddIS3G-128">
          <mxGeometry width="50" height="50" relative="1" as="geometry">
            <mxPoint x="230" y="1260" as="sourcePoint" />
            <mxPoint x="300" y="1220" as="targetPoint" />
          </mxGeometry>
        </mxCell>
      </root>
    </mxGraphModel>
  </diagram>
</mxfile>
